<svg xmlns="http://www.w3.org/2000/svg" width="384" height="373" fill="none" viewBox="0 0 384 373"><circle cx="195" cy="207" r="166" fill="#F5F5F5"/><path fill="#212528" d="M94.5313 263.438H295.219C298.469 263.438 300.906 261 300.906 257.75V123.687C300.906 120.437 298.469 118 295.219 118H94.5313C91.6875 118 89.25 120.437 89.25 123.687V257.75C89.25 261 91.6875 263.438 94.5313 263.438Z"/><path fill="#212528" d="M73 283.344C73 289.844 78.2812 296.75 85.1875 296.75H304.562C311.062 296.75 316.75 289.844 316.75 283.344H73Z"/><path fill="#DDD" d="M296.438 263.438H93.3125L73 283.344H316.75L296.438 263.438Z"/><path fill="#BFBEBE" d="M289.531 265.062H100.219L93.3125 273.187H296.438L289.531 265.062Z"/><path fill="#212528" d="M215.594 276.844H174.156L170.906 281.312H218.844L215.594 276.844Z"/><path fill="#3E4347" d="M101 130H287.875V251.062H101V130Z"/><path fill="#DDD" d="M194.875 127.75C196.67 127.75 198.125 126.295 198.125 124.5C198.125 122.705 196.67 121.25 194.875 121.25C193.08 121.25 191.625 122.705 191.625 124.5C191.625 126.295 193.08 127.75 194.875 127.75Z"/><path fill="#3E4347" d="M212.344 291.875H177.406C176.188 291.875 172.938 291.875 172.938 287.813H216.813C216.813 291.875 213.563 291.875 212.344 291.875Z"/><path fill="#C4C4C4" d="M195 191C199.509 191 203.833 189.209 207.021 186.021C210.209 182.833 212 178.509 212 174C212 169.491 210.209 165.167 207.021 161.979C203.833 158.791 199.509 157 195 157C190.491 157 186.167 158.791 182.979 161.979C179.791 165.167 178 169.491 178 174C178 178.509 179.791 182.833 182.979 186.021C186.167 189.209 190.491 191 195 191ZM206.333 174C206.333 177.006 205.139 179.888 203.014 182.014C200.888 184.139 198.006 185.333 195 185.333C191.994 185.333 189.112 184.139 186.986 182.014C184.861 179.888 183.667 177.006 183.667 174C183.667 170.994 184.861 168.112 186.986 165.986C189.112 163.861 191.994 162.667 195 162.667C198.006 162.667 200.888 163.861 203.014 165.986C205.139 168.112 206.333 170.994 206.333 174ZM229 219.333C229 225 223.333 225 223.333 225H166.667C166.667 225 161 225 161 219.333C161 213.667 166.667 196.667 195 196.667C223.333 196.667 229 213.667 229 219.333ZM223.333 219.311C223.328 217.917 222.461 213.723 218.619 209.881C214.924 206.187 207.971 202.333 195 202.333C182.023 202.333 175.076 206.187 171.381 209.881C167.539 213.723 166.678 217.917 166.667 219.311H223.333Z"/><circle cx="49" cy="61" r="18.25" stroke="#0CF" stroke-width="3.5"/><circle cx="349" cy="332" r="13.25" stroke="#0CF" stroke-width="3.5"/><path stroke="#8AD25D" stroke-width="3.5" d="M6.38045 352.75L25 320.5L43.6195 352.75H6.38045Z"/><path stroke="#8AD25D" stroke-width="3.5" d="M348.25 77.3805L380.5 96L348.25 114.62L348.25 77.3805Z"/><rect width="24.5" height="24.5" x="236.75" y="1.75" stroke="#939393" stroke-width="3.5"/></svg>