<?xml version="1.0"?>
<svg xmlns="http://www.w3.org/2000/svg" xmlns:xlink="http://www.w3.org/1999/xlink" xmlns:svgjs="http://svgjs.com/svgjs" version="1.1" width="512" height="512" x="0" y="0" viewBox="0 0 442.981 442.981" style="enable-background:new 0 0 512 512" xml:space="preserve" class=""><g>
<g xmlns="http://www.w3.org/2000/svg">
	<path d="M433.127,174.784l-16.72-16.72c-3.906-3.905-10.236-3.905-14.143,0l-16.72,16.72c-6.354,6.355-9.854,14.804-9.854,23.791   s3.5,17.437,9.854,23.791c6.561,6.56,15.174,9.839,23.791,9.838c8.615,0,17.232-3.28,23.791-9.838   c6.354-6.354,9.854-14.804,9.854-23.791S439.481,181.139,433.127,174.784z M418.984,208.223c-5.32,5.32-13.977,5.32-19.297,0   c-2.578-2.577-3.997-6.004-3.997-9.648c0-3.645,1.419-7.071,3.997-9.648l9.648-9.649l9.648,9.649   c2.578,2.577,3.997,6.003,3.997,9.648C422.981,202.219,421.562,205.646,418.984,208.223z" fill="#00644a" data-original="#000000" style="" class=""/>
	<path d="M258.194,125.946c-2.652,0-5.195,1.054-7.071,2.929L37.634,342.355c-12.963,12.977-12.961,34.083,0.004,47.047   c6.28,6.28,14.637,9.739,23.529,9.739c8.896,0,17.25-3.46,23.521-9.739l246.396-246.385c2.859-2.86,3.715-7.161,2.168-10.898   c-1.548-3.737-5.194-6.173-9.239-6.173H258.194z M70.546,375.26c-0.001,0.001-0.003,0.003-0.004,0.004   c-2.497,2.5-5.826,3.877-9.375,3.877c-3.551,0-6.884-1.378-9.387-3.881c-5.172-5.171-5.17-13.592,0-18.767l210.556-210.547h37.534   L70.546,375.26z" fill="#00644a" data-original="#000000" style="" class=""/>
	<path d="M394.069,122.928c1.953,1.953,4.512,2.929,7.071,2.929s5.118-0.976,7.071-2.929c3.905-3.905,3.905-10.237,0-14.143   L318.26,18.834c-3.906-3.905-10.236-3.905-14.143,0c-3.905,3.905-3.905,10.237,0,14.143l1.708,1.708L17.893,322.607   c-23.857,23.858-23.857,62.679-0.002,86.536c11.559,11.564,26.926,17.932,43.272,17.932c16.346,0,31.716-6.368,43.278-17.93   l287.922-287.922L394.069,122.928z M378.221,107.081L90.3,395.003c-7.785,7.785-18.132,12.073-29.136,12.073   c-11.002,0-21.347-4.287-29.128-12.072c-16.061-16.061-16.061-42.193,0-58.254L319.968,48.827L378.221,107.081z" fill="#00644a" data-original="#000000" style="" class=""/>
</g>
<g xmlns="http://www.w3.org/2000/svg">
</g>
<g xmlns="http://www.w3.org/2000/svg">
</g>
<g xmlns="http://www.w3.org/2000/svg">
</g>
<g xmlns="http://www.w3.org/2000/svg">
</g>
<g xmlns="http://www.w3.org/2000/svg">
</g>
<g xmlns="http://www.w3.org/2000/svg">
</g>
<g xmlns="http://www.w3.org/2000/svg">
</g>
<g xmlns="http://www.w3.org/2000/svg">
</g>
<g xmlns="http://www.w3.org/2000/svg">
</g>
<g xmlns="http://www.w3.org/2000/svg">
</g>
<g xmlns="http://www.w3.org/2000/svg">
</g>
<g xmlns="http://www.w3.org/2000/svg">
</g>
<g xmlns="http://www.w3.org/2000/svg">
</g>
<g xmlns="http://www.w3.org/2000/svg">
</g>
<g xmlns="http://www.w3.org/2000/svg">
</g>
</g></svg>
